<?xml version="1.0" encoding="utf-8"?>
<!-- Generator: Adobe Illustrator 19.0.0, SVG Export Plug-In . SVG Version: 6.00 Build 0)  -->
<svg version="1.1" id="图层_1" xmlns="http://www.w3.org/2000/svg" xmlns:xlink="http://www.w3.org/1999/xlink" x="0px" y="0px"
	 viewBox="0 0 566.9 238.1" style="enable-background:new 0 0 566.9 238.1;" xml:space="preserve">
<style type="text/css">
	.st0{fill:#D4000F;}
	.st1{fill:#E39000;}
	.st2{fill:url(#XMLID_14_);}
	.st3{fill:#FFFFFF;}
</style>
<g id="XMLID_17_">
	<path id="XMLID_36_" class="st0" d="M100.8,95.5L95,119h-1.7c-0.4-3.8-1.1-6.8-2-9c-1.5-3.3-3.4-5.8-5.8-7.6
		c-2.4-1.8-5-2.7-7.8-2.7c-2.7,0-5.1,1-7.1,3.1c-2,2.1-3,4.4-3,7c0,2.6,0.7,5.1,2.1,7.6c1.4,2.5,4.7,6.2,10,11.2
		c4.2,4,7,7.4,8.5,10.3c1.4,2.9,2.2,6,2.2,9.4c0,3.8-1,7.3-3,10.5c-2,3.2-4.9,5.7-8.8,7.4c-3.8,1.8-8.2,2.6-13.1,2.6
		c-3,0-6.8-0.4-11.3-1.3c-4.5-0.9-7.6-1.3-9.1-1.3c-1.2,0-2.2,0.2-3.2,0.6c-0.9,0.4-2.1,0.8-3.5,1.9h-2.1l6.3-26.8h2
		c0.5,4.7,1.4,8.8,2.9,12.1c1.5,3.3,3.6,5.9,6.3,7.8c2.7,1.8,5.8,2.8,9.3,2.8c3.5,0,6.3-1.1,8.7-3.4c2.3-2.3,3.5-4.9,3.5-8
		c0-2.6-0.7-5.1-2-7.5c-1.3-2.4-4.3-5.9-8.9-10.5c-4.6-4.6-7.9-8.7-9.6-12.3c-1.3-2.7-1.9-5.5-1.9-8.6c0-5.3,2.1-9.8,6.2-13.6
		C62.9,96.9,68.3,95,75,95c3,0,7,0.7,12,2c2.9,0.8,4.9,1.2,6.1,1.2c1,0,1.9-0.2,2.7-0.6c0.8-0.4,1.6-0.8,2.7-2.1H100.8z"/>
	<path id="XMLID_35_" class="st0" d="M128.1,119.8l-10.9,34.7c-0.5,1.7-0.8,2.8-0.8,3.4c0,0.3,0.1,0.6,0.4,0.7
		c0.3,0.3,0.6,0.4,1,0.4c1.6,0,3.7-1.4,6.3-4.3c3.8-4.1,7.7-10.1,11.8-17.8l5.2-16.6l13.2-0.5l-10.7,35.4c-0.9,2.9-1.3,4.6-1.3,5.1
		c0,0.3,0.1,0.5,0.4,0.8c0.3,0.3,0.5,0.4,0.8,0.4c0.5,0,1-0.2,1.4-0.6c1.3-1,2.9-2.9,5-5.9l1.8,1.2c-4.9,8.4-10.2,12.7-16,12.7
		c-2.2,0-3.9-0.5-5.1-1.6c-1.2-1.1-1.9-2.5-1.9-4.3c0-1.9,0.4-4.3,1.3-7.2l2.7-8.9c-4.5,6.6-7.8,11-9.8,13.3
		c-3.1,3.4-5.7,5.7-7.9,6.9c-2.1,1.1-4.2,1.7-6.1,1.7c-1.8,0-3.4-0.7-4.8-2c-1.3-1.4-2-3.1-2-5.1c0-1.8,0.5-4.2,1.5-7.2l6.6-20.9
		c1-3.4,1.5-5.7,1.5-6.9c0-0.5-0.1-1-0.4-1.4c-0.3-0.4-0.7-0.7-1.3-0.9c-0.6-0.2-1.5-0.3-2.9-0.3l0.5-2l17.3-2.3H128.1z"/>
	<path id="XMLID_32_" class="st0" d="M174.8,162c1,1.7,2,2.9,2.8,3.4c0.8,0.6,1.8,0.9,2.9,0.9c1.1,0,2.2-0.3,3.3-0.9
		c1.1-0.6,2.4-1.8,4-3.7c1.6-1.8,3.1-4.2,4.5-7.1c1.5-2.9,2.6-6.2,3.5-9.8c0.9-3.7,1.3-7.2,1.3-10.5c0-2.7-0.5-4.6-1.4-5.9
		c-1-1.2-2.1-1.8-3.5-1.8c-1.2,0-2.4,0.3-3.5,0.9c-1.6,0.9-3.4,2.6-5.6,5.1L174.8,162z M165.7,122l17.7-2.1h3.3l-2.1,7.7
		c3.7-3.3,6.7-5.6,9-6.7c2.3-1.2,4.7-1.7,7-1.7c3.3,0,5.8,1.3,7.6,3.8c1.8,2.5,2.7,5.6,2.7,9.3c0,10-3.5,18.9-10.4,26.6
		c-6.1,6.8-12.8,10.2-20,10.2c-1.3,0-2.4-0.1-3.3-0.4c-0.9-0.3-2.2-0.8-3.8-1.6l-3.6,12.3c-1,3.4-1.5,6-1.5,7.8c0,1.1,0.4,2,1.1,2.6
		c0.8,0.6,2.5,1.2,5.2,1.7l-0.5,1.9h-28l0.5-1.9c2.2-0.1,4.1-0.8,5.6-2.1c1.5-1.4,2.9-4.3,4.2-8.8l13.5-46.8
		c0.9-3.3,1.4-5.6,1.4-6.9c0-0.6-0.1-1.1-0.4-1.5c-0.3-0.4-0.7-0.7-1.4-0.9c-0.6-0.2-2.1-0.3-4.4-0.3L165.7,122z"/>
	<path id="XMLID_29_" class="st0" d="M231,145.1c3.1-0.5,5.4-1.1,7.1-1.9c1.7-0.8,3.3-2,5-3.8c1.6-1.7,3-3.9,4.2-6.5
		c1.2-2.6,1.8-5.1,1.8-7.4c0-1-0.3-1.7-0.8-2.3c-0.5-0.6-1.2-0.8-2.1-0.8c-1.7,0-3.6,1.2-5.6,3.5C236.8,130.2,233.6,136.6,231,145.1
		 M230.6,147.8c-0.3,2.3-0.5,4.1-0.5,5.6c0,2.6,0.8,4.7,2.3,6.3c1.5,1.6,3.5,2.3,6.1,2.3c2.4,0,4.9-0.5,7.3-1.6
		c2.5-1,5.3-2.8,8.5-5.4l1.6,1.3c-4,4.5-7.9,7.7-11.7,9.7c-3.8,1.9-8,2.9-12.6,2.9c-5.8,0-9.8-1.4-12-4.2c-2.2-2.8-3.3-6-3.3-9.7
		c0-5.7,1.7-11.4,5-17.1c3.3-5.7,7.8-10.3,13.6-13.7c5.7-3.4,11.5-5.2,17.2-5.2c2.9,0,5.1,0.7,6.6,2.1c1.5,1.4,2.3,3.2,2.3,5.3
		c0,2.5-0.7,5-2.2,7.4c-2,3.3-4.6,5.9-7.6,7.9c-3.1,2-6.5,3.5-10.3,4.6C238.2,146.9,234.8,147.5,230.6,147.8"/>
	<path id="XMLID_28_" class="st0" d="M288.6,119.8l-8.9,28.5c6.3-14.3,11.1-23.1,14.3-26.4c1.9-1.9,3.8-2.9,5.9-2.9
		c1.4,0,2.6,0.5,3.5,1.6c0.9,1.1,1.3,2.6,1.3,4.5c0,3.4-0.8,6.2-2.4,8.5c-1,1.5-2.2,2.2-3.4,2.2c-1.4,0-2.4-0.6-3.1-1.9
		c-0.7-1.3-1.2-2-1.4-2.3c-0.3-0.2-0.6-0.3-0.9-0.3c-0.3,0-0.7,0.1-1.1,0.3c-0.8,0.4-1.7,1.4-2.9,3.1c-1.2,1.6-2.7,4.4-4.5,8.2
		c-1.8,3.8-3.2,7.2-4.2,9.9c-1,2.6-2.8,8.8-4.9,16.1h-12.8l10.3-36c0.7-2.6,1-4.3,1-5.1c0-0.9-0.2-1.7-0.6-2.2
		c-0.4-0.5-1-0.9-1.7-1.1c-0.7-0.2-2.2-0.4-4.5-0.4l0.5-1.5l17.1-2.7H288.6z"/>
	<path id="XMLID_27_" class="st0" d="M344.3,95.5l4.8,49.8l34-49.8h24.8l-0.6,1.9c-3.4,0-6,0.7-7.8,2.2c-1.8,1.5-3.3,4.4-4.5,8.7
		L381.3,156c-0.8,2.9-1.3,5-1.3,6.4c0,1.3,0.5,2.3,1.6,3.1c1,0.8,3.1,1.2,6.2,1.3l-0.5,1.9H352l0.6-1.9c3.8,0,6.6-0.7,8.4-2.2
		c1.8-1.4,3.3-4.3,4.6-8.6l13.8-48.2l-41.1,61h-2.1l-5.7-62.1L316.4,156c-0.6,1.9-0.8,3.5-0.8,4.8c0,1.7,0.6,3.1,1.8,4.2
		c1.2,1.1,3.2,1.7,6.1,1.8l-0.5,1.9h-23.4l0.5-1.9c2.8-0.1,5-0.7,6.5-1.8c2.6-1.9,4.6-4.9,5.7-9l15.9-54.7c-1.5-1.6-2.8-2.6-3.9-3.1
		c-1.2-0.5-3.1-0.7-5.9-0.7l0.6-1.9H344.3z"/>
	<path id="XMLID_24_" class="st0" d="M430.9,129.7c0-2.8-0.4-4.8-1.3-6.1c-0.6-0.9-1.5-1.3-2.6-1.3c-1.1,0-2.2,0.5-3.4,1.6
		c-2.4,2.2-4.9,6.5-7.6,13.1c-2.7,6.6-4.1,12.3-4.1,17.1c0,1.8,0.3,3.2,0.9,4c0.6,0.8,1.3,1.2,2,1.2c1.6,0,3.2-0.9,4.8-2.7
		c2.3-2.6,4.4-5.7,6.2-9.4C429.2,140.6,430.9,134.8,430.9,129.7 M447.7,119.8l-10.3,34.7l-1.1,4.2c-0.1,0.5-0.2,0.9-0.2,1.2
		c0,0.4,0.1,0.8,0.4,1.1c0.3,0.3,0.6,0.5,0.9,0.5c0.7,0,1.7-0.5,3-1.7c0.5-0.5,1.8-2,3.8-4.8l1.9,0.9c-2.5,4.5-5.1,7.8-7.9,9.8
		c-2.8,2.1-5.8,3.1-9.1,3.1c-2,0-3.5-0.5-4.6-1.5c-1-1-1.6-2.3-1.6-3.9c0-1.4,0.6-3.9,1.7-7.6l1.3-4.2c-4.1,6.9-7.9,11.8-11.7,14.7
		c-2.2,1.7-4.5,2.5-6.9,2.5c-3.2,0-5.5-1.3-7-3.9c-1.4-2.6-2.1-5.6-2.1-8.9c0-4.9,1.5-10.5,4.5-16.9c3-6.3,7-11.5,11.9-15.3
		c4-3.2,7.8-4.8,11.4-4.8c2,0,3.5,0.6,4.7,1.7c1.2,1.1,2.1,3.2,2.6,6.2l1.9-6.4L447.7,119.8z"/>
	<path id="XMLID_21_" class="st0" d="M464.7,162c1,1.7,2,2.9,2.8,3.4c0.8,0.6,1.8,0.9,2.9,0.9c1.1,0,2.2-0.3,3.3-0.9
		c1.1-0.6,2.4-1.8,4-3.7c1.6-1.8,3.1-4.2,4.5-7.1c1.5-2.9,2.6-6.2,3.5-9.8c0.9-3.7,1.3-7.2,1.3-10.5c0-2.7-0.5-4.6-1.4-5.9
		c-1-1.2-2.1-1.8-3.5-1.8c-1.2,0-2.4,0.3-3.5,0.9c-1.6,0.9-3.4,2.6-5.6,5.1L464.7,162z M455.6,122l17.7-2.1h3.3l-2.1,7.7
		c3.7-3.3,6.7-5.6,9-6.7c2.3-1.2,4.7-1.7,7-1.7c3.3,0,5.8,1.3,7.6,3.8c1.8,2.5,2.7,5.6,2.7,9.3c0,10-3.5,18.9-10.4,26.6
		c-6.1,6.8-12.8,10.2-20,10.2c-1.3,0-2.4-0.1-3.3-0.4c-0.9-0.3-2.2-0.8-3.8-1.6l-3.5,12.3c-1,3.4-1.5,6-1.5,7.8c0,1.1,0.4,2,1.1,2.6
		c0.7,0.6,2.5,1.2,5.2,1.7l-0.5,1.9h-28l0.5-1.9c2.3-0.1,4.1-0.8,5.6-2.1c1.5-1.4,2.9-4.3,4.2-8.8l13.4-46.8
		c0.9-3.3,1.4-5.6,1.4-6.9c0-0.6-0.1-1.1-0.4-1.5c-0.3-0.4-0.7-0.7-1.4-0.9c-0.6-0.2-2.1-0.3-4.4-0.3L455.6,122z"/>
	<g id="XMLID_18_">
		<path id="XMLID_20_" class="st1" d="M524.9,117.2C522.2,97,499.8,80.8,466,71.5c-0.3,1.1-0.6,2.2-1.1,3.3
			c32.9,9.2,54.7,25,57.3,44.8c1.2,8.8-1.9,17.4-7.6,25.6c-1.5,2.4-3.5,4.9-5.7,7.4c1.3-1.1,10.6-9,14.4-20.2
			c0.1-0.2,0.1-0.4,0.2-0.6c0.2-0.6,0.4-1.2,0.6-1.9c0.1-0.4,0.2-0.8,0.3-1.2c0.1-0.5,0.2-1,0.3-1.5
			C525.2,123.9,525.3,120.6,524.9,117.2z"/>
		<path id="XMLID_19_" class="st1" d="M427.7,67c0-0.8,0.1-1.7,0.2-2.5c-21.4-2.2-45.2-2.3-70.2,0.3c-59.6,6.1-108,24.1-133.9,47.3
			c27.1-21.2,73.6-38.3,131.1-44.2c26-2.7,50.7-2.5,72.8-0.1C427.7,67.5,427.7,67.2,427.7,67z"/>
	</g>
</g>
<g id="XMLID_2_">
	<g id="XMLID_13_">
		<g id="XMLID_15_">
			
				<radialGradient id="XMLID_14_" cx="733.7515" cy="1555.8539" r="26.9849" gradientTransform="matrix(0.7979 -0.6028 0.6028 0.7979 -1082.4504 -743.1425)" gradientUnits="userSpaceOnUse">
				<stop  offset="0" style="stop-color:#FFFFFF"/>
				<stop  offset="0.1419" style="stop-color:#FFDCA7"/>
				<stop  offset="0.2953" style="stop-color:#FFBA4E"/>
				<stop  offset="0.4035" style="stop-color:#FFA416"/>
				<stop  offset="0.4555" style="stop-color:#FF9B00"/>
				<stop  offset="0.5384" style="stop-color:#FE8B00"/>
				<stop  offset="0.7003" style="stop-color:#FB6100"/>
				<stop  offset="0.9235" style="stop-color:#F61F00"/>
				<stop  offset="1" style="stop-color:#F40600"/>
			</radialGradient>
			<circle id="XMLID_16_" class="st2" cx="447.1" cy="67" r="16.9"/>
		</g>
	</g>
	
		<ellipse id="XMLID_12_" transform="matrix(0.8632 0.5048 -0.5048 0.8632 89.3873 -221.8576)" class="st3" cx="454.1" cy="54" rx="1" ry="0.5"/>
	<path id="XMLID_11_" class="st3" d="M439.6,51.9c3.6-1,6.7-0.7,8.9-0.3c3.1,0.7,5,2,5,2l-0.1,0.1c0,0-1.9-1.3-5-1.9
		c-2.3-0.5-5.6-0.8-9.4,0.4"/>
	<path id="XMLID_10_" class="st3" d="M452.6,51c0.4,0.4,0.7,0.9,0.9,1.3c0.4,0.8,0.6,1.5,0.6,1.5l-0.1,0c0,0-0.6-1.8-1.7-2.9"/>
	<path id="XMLID_9_" class="st3" d="M458.4,54.4c-2.3-1-4-0.4-4.1-0.4l0-0.1c0,0,1.7-0.6,3.9,0.3"/>
	<path id="XMLID_8_" class="st3" d="M463.4,71.3c0.8-5.5-1.6-9.8-3.7-12.4c-2.4-2.9-5-4.5-5-4.5l0.1-0.1c0,0,2.7,1.6,5.1,4.5
		c2,2.5,4.3,6.5,3.9,11.6"/>
	<path id="XMLID_7_" class="st3" d="M431.9,74.4c0.6-3.1,2-6,4.1-8.7c1.9-2.4,4.4-4.7,7.5-6.7c5.2-3.4,10.2-5,10.2-5l0,0.1
		c0,0-5,1.6-10.2,5c-3,2-5.5,4.3-7.4,6.7c-2.1,2.7-3.5,5.7-4.1,8.8"/>
	<path id="XMLID_6_" class="st3" d="M445.9,83.8c2.5-2,4.5-4.6,5.9-7.8c1.3-2.9,2.2-6.3,2.6-10.1c0.7-6.4-0.3-11.8-0.4-11.9l0.1,0
		c0,0.1,1,5.4,0.4,11.9c-0.4,3.8-1.3,7.2-2.6,10.1c-1.4,3.1-3.4,5.8-5.9,7.8"/>
	<path id="XMLID_5_" class="st3" d="M460.8,57.2l-0.4-0.6c0.9,1.5,1.2,3.1,0.5,4.2c-1.4,2.4-6.1,2.4-10.6-0.1
		c-4.5-2.5-7-6.5-5.6-8.9c0.5-0.9,1.4-1.4,2.6-1.7c-0.1,0-0.3,0-0.4,0c0,0,0,0,0,0c0,0,0,0,0,0c0,0,0,0,0,0
		c-1.1,0.3-1.8,0.8-2.3,1.6c-1.4,2.5,1.2,6.5,5.7,9.1c2.3,1.3,4.7,1.9,6.6,1.9c1.9,0,3.4-0.6,4.1-1.8h0
		C461.6,59.8,461.5,58.5,460.8,57.2z"/>
	<path id="XMLID_4_" class="st3" d="M455.4,75c-0.4,0-0.8,0-1.2-0.1c-3.8-0.5-10.2-1.3-16.5-8.2c-1.9-2-4-5.3-3.4-9.2
		c0.1-0.8,0.4-1.6,0.6-2.1c0,0,0,0-0.1,0.1c0,0-0.1,0.1-0.1,0.1c0,0,0,0,0,0c-0.2,0.5-0.4,1.2-0.5,1.9c-0.6,4,1.5,7.3,3.4,9.3
		c6.3,6.9,12.7,7.7,16.6,8.2c0.4,0.1,0.8,0.1,1.3,0.1c3.5,0,6.7-1.9,8.2-4.1l0.1-0.3C462.2,73,459,75,455.4,75z"/>
	<path id="XMLID_3_" class="st3" d="M458.1,79.3c-1.7,1-4.6,2-8.7,1.5c-7.9-1-13.2-6.1-13.2-6.1c-4.8-4.4-5.4-8.2-5.5-11.3
		c0,0,0,0.1,0,0.1c0,0,0,0.1,0,0.1c0,0.1,0,0.1,0,0.2c0,0,0,0,0,0c0,0,0,0,0,0c0.1,3.1,1,6.7,5.6,10.9c0.1,0.1,5.3,5.2,13.3,6.2
		c0.8,0.1,1.5,0.1,2.2,0.1C454.6,81,456.8,80.2,458.1,79.3c0.5-0.2,1-0.5,1.3-0.7l0.5-0.6C459.5,78.4,458.9,78.9,458.1,79.3z"/>
</g>
</svg>
